HIERARCHY
ROOT Hips
{
 OFFSET 0.000000 0.000000 0.000000
 CHANNELS 6 Xposition Yposition Zposition Yrotation Xrotation Zrotation
 JOINT Chest
 {
  OFFSET 0.000000 9.585900 0.002600
  CHANNELS 3 Yrotation Xrotation Zrotation
  JOINT Chest2
  {
   OFFSET 0.000000 9.601200 -0.005300
   CHANNELS 3 Yrotation Xrotation Zrotation
   JOINT Chest3
   {
    OFFSET 0.000000 9.561800 0.000000
    CHANNELS 3 Yrotation Xrotation Zrotation
    JOINT Chest4
    {
     OFFSET 0.000000 9.552100 0.000000
     CHANNELS 3 Yrotation Xrotation Zrotation
     JOINT Neck
     {
      OFFSET 0.000000 14.453000 0.000000
      CHANNELS 3 Yrotation Xrotation Zrotation
      JOINT Head
      {
       OFFSET 0.000000 8.936500 -0.011300
       CHANNELS 3 Yrotation Xrotation Zrotation
       End Site
       {
        OFFSET 0.000000 17.073600 -0.006000
       }
      }
     }
     JOINT RightCollar
     {
      OFFSET -2.921100 9.558500 0.000000
      CHANNELS 3 Yrotation Xrotation Zrotation
      JOINT RightShoulder
      {
       OFFSET -13.519700 0.000000 0.000000
       CHANNELS 3 Yrotation Xrotation Zrotation
       JOINT RightElbow
       {
        OFFSET 0.000000 -29.696600 0.000000
        CHANNELS 3 Yrotation Xrotation Zrotation
        JOINT RightWrist
        {
         OFFSET 0.000000 -24.004700 0.000000
         CHANNELS 3 Yrotation Xrotation Zrotation
         End Site
         {
          OFFSET 0.000000 -17.728500 0.000000
         }
        }
       }
      }
     }
     JOINT LeftCollar
     {
      OFFSET 2.921100 9.558500 0.000000
      CHANNELS 3 Yrotation Xrotation Zrotation
      JOINT LeftShoulder
      {
       OFFSET 13.519700 0.000000 0.000000
       CHANNELS 3 Yrotation Xrotation Zrotation
       JOINT LeftElbow
       {
        OFFSET 0.000000 -29.696600 0.000000
        CHANNELS 3 Yrotation Xrotation Zrotation
        JOINT LeftWrist
        {
         OFFSET 0.000000 -24.004700 0.000000
         CHANNELS 3 Yrotation Xrotation Zrotation
         End Site
         {
          OFFSET 0.000000 -17.728500 0.000000
         }
        }
       }
      }
     }
    }
   }
  }
 }
 JOINT RightHip
 {
  OFFSET -7.771700 -0.012900 -0.001300
  CHANNELS 3 Yrotation Xrotation Zrotation
  JOINT RightKnee
  {
   OFFSET 0.000000 -40.869800 0.001200
   CHANNELS 3 Yrotation Xrotation Zrotation
   JOINT RightAnkle
   {
    OFFSET 0.000000 -39.717900 0.002100
    CHANNELS 3 Yrotation Xrotation Zrotation
    JOINT RightToe
    {
     OFFSET 0.000000 -4.965400 11.033500
     CHANNELS 3 Yrotation Xrotation Zrotation
     End Site
     {
      OFFSET 0.000000 -1.423100 5.872300
     }
    }
   }
  }
 }
 JOINT LeftHip
 {
  OFFSET 7.771700 -0.012900 -0.001300
  CHANNELS 3 Yrotation Xrotation Zrotation
  JOINT LeftKnee
  {
   OFFSET 0.000000 -40.869800 0.001200
   CHANNELS 3 Yrotation Xrotation Zrotation
   JOINT LeftAnkle
   {
    OFFSET 0.000000 -39.717900 0.002100
    CHANNELS 3 Yrotation Xrotation Zrotation
    JOINT LeftToe
    {
     OFFSET 0.000000 -4.965400 11.033500
     CHANNELS 3 Yrotation Xrotation Zrotation
     End Site
     {
      OFFSET 0.000000 -1.423100 5.872300
     }
    }
   }
  }
 }
}
MOTION
Frames: 6
Frame Time: 0.008333
0.000000 85.388000 0.000000 0.000000 -5.767877 0.000000 0.000000 11.653817 0.000000 0.000000 -5.885947 0.000000 0.000000 -0.000000 0.000000 0.000000 -0.000000 0.000000 0.000000 12.528835 0.000000 0.000000 0.711642 0.000000 0.000000 -0.000000 0.000000 0.000000 0.000000 -90.000000 0.000000 -2.309062 0.000000 0.000000 2.309062 0.000000 0.000000 -0.000000 0.000000 0.000000 -0.000000 90.000000 0.000000 -2.309062 0.000000 0.000000 2.309062 0.000000 0.000000 8.520406 0.000000 0.000000 1.905762 0.000000 -0.000000 -4.658285 0.000000 0.000000 -0.000000 0.000000 0.000000 8.520406 0.000000 0.000000 1.905762 0.000000 -0.000000 -4.658285 0.000000 0.000000 -0.000000 0.000000
-10.054109 57.357219 43.535754 -166.902924 -46.132093 -5.493172 -4.982632 26.310353 0.612494 -0.827291 4.553392 -0.018289 -1.314309 7.213875 -0.057231 -4.118520 21.668058 -0.702865 -5.423812 11.130104 -12.288604 -5.100469 -14.988003 -21.217456 10.407544 -1.899816 -5.137783 44.133466 -55.160389 -34.801013 -163.249839 -63.075526 -167.591557 8.920562 3.799294 -16.818612 -12.021723 -5.208678 -4.007339 -6.042244 -45.952008 1.402737 174.885093 -46.744943 167.500574 -6.676153 -14.863752 32.985220 4.069160 -24.506335 -11.591871 -8.306988 68.637192 -7.608260 4.936909 10.302383 10.478331 -0.658697 -7.190573 0.116828 -12.317380 -34.134663 -7.961972 28.520529 62.988789 25.819463 -9.360832 41.636839 6.231772 1.272730 -24.671342 -9.068201
-10.057294 57.358708 43.533056 -166.896024 -46.123350 -5.494700 -4.989902 26.307246 0.606671 -0.826695 4.549534 -0.017109 -1.308578 7.217190 -0.065129 -4.119028 21.654137 -0.702984 -5.315477 11.228171 -12.267692 -4.924451 -14.813485 -21.207224 10.416600 -1.899373 -5.141527 44.254187 -55.143402 -34.774736 -163.095753 -62.560523 -167.628040 9.173376 4.049698 -16.308962 -11.944078 -5.197011 -3.969085 -6.147669 -45.920260 1.363699 174.877747 -46.127202 167.637227 -6.839396 -15.117265 33.195016 4.012891 -24.520522 -11.612281 -8.209300 68.640319 -7.521517 4.961598 10.303484 10.464004 -0.683651 -7.195048 0.107845 -12.317768 -34.148116 -7.981000 28.538777 62.996963 25.856201 -9.354867 41.627814 6.225919 1.267900 -24.671649 -9.070735
-10.060689 57.359823 43.531415 -166.890660 -46.109429 -5.493656 -4.988994 26.311229 0.599008 -0.831806 4.539537 -0.014251 -1.289860 7.222141 -0.069412 -4.102097 21.656965 -0.716621 -5.215970 11.312453 -12.214156 -4.757635 -14.645891 -21.170573 10.401546 -1.923597 -5.127797 44.337194 -55.116937 -34.742226 -163.107047 -62.022281 -167.498634 9.397987 4.273294 -15.862364 -11.891023 -5.203393 -3.914197 -6.229973 -45.888631 1.319269 174.725652 -45.579582 167.836781 -7.013370 -15.391508 33.397393 3.983961 -24.534874 -11.629634 -8.194303 68.637539 -7.506100 4.978150 10.305240 10.450519 -0.687948 -7.195530 0.105772 -12.319683 -34.169550 -8.012120 28.576107 63.000179 25.914203 -9.304396 41.625038 6.263308 1.245050 -24.676180 -9.093733
-10.063958 57.361113 43.530702 -166.882611 -46.096196 -5.493941 -4.991085 26.305763 0.593392 -0.787276 4.563857 -0.025664 -1.312697 7.204103 -0.056430 -4.075459 21.667089 -0.720707 -5.119042 11.396824 -12.159121 -4.607503 -14.481975 -21.099580 10.378392 -1.948857 -5.125986 44.387292 -55.081009 -34.706859 -163.217008 -61.480059 -167.280207 9.584588 4.438575 -15.455100 -11.840308 -5.219308 -3.869144 -6.305906 -45.861026 1.271972 174.497600 -45.097350 168.062405 -7.194511 -15.672998 33.611200 3.956125 -24.548057 -11.644919 -8.170242 68.632448 -7.481735 4.974875 10.317108 10.445596 -0.670889 -7.200978 0.092683 -12.324052 -34.183857 -8.020199 28.568746 63.004854 25.914023 -9.306674 41.624807 6.253377 1.252619 -24.673851 -9.094544
-10.068352 57.363196 43.530755 -166.864077 -46.090813 -5.492582 -4.974531 26.315157 0.588857 -0.780837 4.566201 -0.029583 -1.305624 7.208736 -0.056481 -4.052368 21.675318 -0.718073 -5.025428 11.481731 -12.086023 -4.471238 -14.318941 -20.992577 10.344775 -1.974895 -5.122366 44.415367 -55.036495 -34.670889 -163.322257 -60.951503 -167.071232 9.737489 4.533545 -15.077922 -11.800695 -5.240229 -3.821742 -6.396446 -45.836329 1.241464 174.259184 -44.670319 168.284679 -7.378823 -15.964076 33.842102 3.930185 -24.547686 -11.668067 -8.160051 68.623737 -7.472522 4.979718 10.319209 10.436550 -0.668268 -7.198715 0.091258 -12.328148 -34.189727 -8.051754 28.587425 62.997297 25.944208 -9.298789 41.621410 6.259802 1.239466 -24.667619 -9.100446
